<svg width="928" height="186" viewBox="0 0 928 186" fill="none" xmlns="http://www.w3.org/2000/svg">
<mask id="path-1-inside-1_329_2132" fill="white">
<path fill-rule="evenodd" clip-rule="evenodd" d="M60 0H928V126L868 186H0V60L60 0Z"/>
</mask>
<path d="M928 0H929V-1H928V0ZM60 0V-1H59.5858L59.2929 -0.707107L60 0ZM928 126L928.707 126.707L929 126.414V126H928ZM868 186V187H868.414L868.707 186.707L868 186ZM0 186H-1V187H0V186ZM0 60L-0.707107 59.2929L-1 59.5858V60H0ZM928 -1H60V1H928V-1ZM929 126V0H927V126H929ZM927.293 125.293L867.293 185.293L868.707 186.707L928.707 126.707L927.293 125.293ZM0 187H868V185H0V187ZM-1 60V186H1V60H-1ZM59.2929 -0.707107L-0.707107 59.2929L0.707107 60.7071L60.7071 0.707107L59.2929 -0.707107Z" fill="#F6F6F6" fill-opacity="0.2" mask="url(#path-1-inside-1_329_2132)"/>
</svg>
