<?xml version="1.0" encoding="utf-8"?>
<!-- Generator: Adobe Illustrator 27.2.0, SVG Export Plug-In . SVG Version: 6.00 Build 0)  -->
<svg version="1.1" id="圖層_1" xmlns="http://www.w3.org/2000/svg" xmlns:xlink="http://www.w3.org/1999/xlink" x="0px" y="0px"
	 viewBox="0 0 180 40" style="enable-background:new 0 0 180 40;" xml:space="preserve">
<style type="text/css">
	.st0{fill:#FFFFFF;}
	.st1{fill:#CC1415;}
</style>
<path class="st0" d="M84.9,15.6l-0.4-0.8L43.3,26.1l-4.7,9.8l0.1,0c31.6-7.6,45.4-19.7,45.4-19.7C84.3,16,84.6,15.8,84.9,15.6
	 M43.9,26.9l38.6-10.6c-6.4,4.6-13.9,8.4-20.7,11.2c-6.8,2.8-14.2,5.3-21.6,7.1L43.9,26.9L43.9,26.9z"/>
<path class="st0" d="M14.7,39.2c-3.4,0-6.2-0.3-8.5-0.9L5,38.1l22.4-10.7l-5.6,11.5l-0.3,0C19.2,39.1,16.8,39.2,14.7,39.2 M7.7,37.8
	c3.5,0.6,8.2,0.7,13.5,0.2l4.2-8.7L7.7,37.8z"/>
<path class="st1" d="M66.8,2c-17.8,2.1-40.1,9.6-54.1,18.2C4.5,25.4,0.2,30.3,1,33.6L66.8,2z"/>
<path class="st0" d="M0.5,34.9l-0.2-0.4c-1.6-3.9,2.6-9.2,11.9-14.9c14.8-9.2,38.8-17,57.1-18.7l0.2,0.9L0.5,34.9L0.5,34.9z M66.8,2
	c-17.8,2.1-40.1,9.6-54.1,18.2C4.5,25.4,0.2,30.3,1,33.6L66.8,2z"/>
<path class="st1" d="M82.2,1.7L39.1,22.5l40.7-11.3h7.6c1.8-2,2.4-3.9,1.9-5.4C88.7,3.8,86.2,2.4,82.2,1.7"/>
<path class="st0" d="M34.5,24.7l-0.3-0.8L82.1,0.8l0.1,0c4.4,0.7,7.2,2.3,8,4.6c0.7,1.9-0.1,4.2-2.2,6.5L87.9,12h-7.9L34.5,24.7
	L34.5,24.7z M82.2,1.7L39.1,22.5l40.7-11.3h7.6c1.8-2,2.4-3.9,1.9-5.4C88.7,3.8,86.2,2.4,82.2,1.7"/>
<path class="st0" d="M126.7,39.2l2.3-5h-9.7l-2.3,5h-5.5l4.5-9.7c0.3-0.6,0.9-1.1,2-1.5c1-0.4,2.2-0.6,3.6-0.6h11.8
	c1.3,0,2.3,0.2,2.9,0.6c0.6,0.4,0.8,0.8,0.5,1.5l-4.5,9.7H126.7L126.7,39.2z M130.9,30.2h-9.7l-1.1,2.4h9.7L130.9,30.2z"/>
<path class="st0" d="M144.2,30.2l-2.9,6.3H155l-1.3,2.8h-13.4c-3.9,0-5.3-1-4.4-3.1l2.5-5.5c1-2.1,3.3-3.2,7.1-3.2h13.6l-1.3,2.8
	L144.2,30.2L144.2,30.2z"/>
<path class="st0" d="M178.7,30.2l1.3-3h-18.1l-1.3,3H178.7z"/>
<path class="st0" d="M176.7,34.4l0.9-1.8h-18l-3.1,6.6h18l1.3-3h-12.3l0.9-1.8H176.7z"/>
<path class="st0" d="M67.6,27.2h5.5l-1.4,3h-5.5L67.6,27.2z M86.5,39.2h-7.3l-3.2-4.5h-6.4l-2.1,4.5h-5.5l3.1-6.6h16.2l-1.2,0.6
	L86.5,39.2z M84.9,27.2h7.3l-6,3h-7.4L84.9,27.2L84.9,27.2z"/>
<path class="st0" d="M109.1,27.2c3.3,0,4.7,0.8,4.1,2.1l-0.8,1.8c-0.2,0.5-0.6,0.9-1.1,1.2c-0.7,0.4-1.8,0.8-3.3,1
	c2.1,0.3,2.8,1.1,2.3,2.3l-1.7,3.8h-5.4l2-4.2h-9.5l-2,4.2h-5.4l3.1-6.6h13.2l1-2.4H92.5l1.4-3L109.1,27.2L109.1,27.2z"/>
</svg>
