<svg width="180" height="40" viewBox="0 0 180 40" fill="none" xmlns="http://www.w3.org/2000/svg">
<path d="M84.8721 15.5718L84.4554 14.7856L43.2851 26.0953L38.6059 35.9367L38.6864 35.9178C70.3183 28.2738 84.0575 16.2443 84.0575 16.2443C84.337 16.017 84.6117 15.7944 84.8769 15.5718M43.9339 26.8625L82.5657 16.2538C76.1484 20.8951 68.7128 24.6082 61.8787 27.4498C55.0304 30.2772 47.6422 32.721 40.2587 34.5964L43.9339 26.8672V26.8625Z" fill="#14181A"/>
<path d="M14.7078 39.233C11.3547 39.233 8.50365 38.9441 6.24457 38.3758L5.0274 38.0727L27.3957 27.3266L21.8024 38.8636L21.5514 38.8873C19.1502 39.1194 16.8485 39.2378 14.7078 39.2378M7.74117 37.7791C11.1937 38.4232 15.9345 38.5037 21.2104 38.0111L25.4444 29.2731L7.74117 37.7791Z" fill="#14181A"/>
<path d="M66.8184 2.02202C49.0536 4.12482 26.7421 11.603 12.7235 20.2699C4.49226 25.3612 0.187208 30.3009 1.02549 33.6303L66.8184 2.02202Z" fill="#CC1415"/>
<path d="M0.523431 34.8759L0.338748 34.4354C-1.28097 30.5566 2.94354 25.2523 12.2451 19.498C27.0594 10.3385 51.0711 2.49564 69.3332 0.847498L69.57 1.70946L0.523431 34.8806V34.8759ZM66.8184 2.02203C49.0535 4.12483 26.7421 11.603 12.7234 20.27C4.49223 25.3612 0.187172 30.3009 1.02545 33.6303L66.8184 2.02203Z" fill="#14181A"/>
<path d="M82.2152 1.69998L39.1363 22.4817L79.8661 11.1436H87.4722C89.2435 9.11186 89.8923 7.23166 89.3524 5.69719C88.6799 3.78857 86.1509 2.37723 82.2152 1.70471" fill="#CC1415"/>
<path d="M34.4618 24.7313L34.1445 23.8835L82.0778 0.757513L82.2199 0.781193C86.6386 1.50581 89.3997 3.10185 90.2049 5.38935C90.8774 7.29323 90.1149 9.54285 88.0121 11.8967L87.8747 12.0482H79.9277L34.4618 24.7266V24.7313ZM82.2152 1.69998L39.1363 22.4817L79.8661 11.1436H87.4722C89.2435 9.11187 89.8923 7.23166 89.3524 5.69719C88.6798 3.78857 86.1508 2.37723 82.2152 1.70472" fill="#14181A"/>
<path d="M126.743 39.1904L129.036 34.2128H119.289L116.992 39.1904H111.46L115.945 29.4578C116.22 28.8658 116.864 28.3875 117.925 28.0039C118.943 27.6392 120.174 27.4498 121.548 27.4498H133.355C134.662 27.4498 135.623 27.6392 136.206 28.0039C136.793 28.3686 136.964 28.8469 136.68 29.4578L132.199 39.1904H126.739H126.743ZM130.883 30.2109H121.136L120.028 32.6073H129.774L130.883 30.2109Z" fill="#14181A"/>
<path d="M144.234 30.2014L141.359 36.4719H154.999L153.725 39.2425H140.317C136.424 39.2425 134.97 38.2053 135.931 36.1072L138.437 30.6419C139.408 28.5296 141.766 27.4545 145.526 27.4545H159.171L157.906 30.2061H144.234V30.2014Z" fill="#14181A"/>
<path d="M178.735 30.2109L180 27.213H161.941L160.686 30.2109H178.735Z" fill="#14181A"/>
<path d="M176.727 34.3975L177.675 32.6026H159.687L156.557 39.1904H174.511L175.78 36.1925H163.481L164.39 34.3975H176.727Z" fill="#14181A"/>
<path d="M67.6377 27.213H73.1457L71.758 30.1872H66.25L67.6377 27.213ZM86.5345 39.1856H79.2741L76.0679 34.6391H69.6836L67.5619 39.1856H62.0539L65.1229 32.5978H81.3248L80.1219 33.1993L86.5345 39.1856ZM84.8579 27.213H92.1183L86.1603 30.1872H78.7721L84.8532 27.213H84.8579Z" fill="#14181A"/>
<path d="M109.125 27.213C112.431 27.213 113.79 27.9897 113.189 29.2968L112.431 31.0491C112.204 31.5512 111.83 31.9395 111.37 32.2237C110.65 32.6452 109.585 32.9767 108.117 33.1898C110.177 33.5356 110.949 34.2933 110.423 35.4489L108.69 39.2377H103.291L105.336 35.0321H95.8171L93.7711 39.2377H88.3768L91.5262 32.6262H104.726L105.72 30.2251H92.5208L93.9416 27.2177H109.121L109.125 27.213Z" fill="#14181A"/>
</svg>
